HIERARCHY
ROOT Hips
{
	OFFSET 0.00000 0.00000 0.00000
	CHANNELS 6 Xposition Yposition Zposition Zrotation Yrotation Xrotation 
	JOINT LHipJoint
	{
		OFFSET 0 0 0
		CHANNELS 3 Zrotation Yrotation Xrotation
		JOINT LeftUpLeg
		{
			OFFSET 1.70593 -1.62653 0.87602
			CHANNELS 3 Zrotation Yrotation Xrotation
			JOINT LeftLeg
			{
				OFFSET 2.32330 -6.38322 0.00000
				CHANNELS 3 Zrotation Yrotation Xrotation
				JOINT LeftFoot
				{
					OFFSET 2.45016 -6.73177 0.00000
					CHANNELS 3 Zrotation Yrotation Xrotation
					JOINT LeftToeBase
					{
						OFFSET 0.13029 -0.35798 1.96980
						CHANNELS 3 Zrotation Yrotation Xrotation
						End Site
						{
							OFFSET 0.00000 -0.00000 1.01270
						}
					}
				}
			}
		}
	}
	JOINT RHipJoint
	{
		OFFSET 0 0 0
		CHANNELS 3 Zrotation Yrotation Xrotation
		JOINT RightUpLeg
		{
			OFFSET -1.80599 -1.62652 0.87602
			CHANNELS 3 Zrotation Yrotation Xrotation
			JOINT RightLeg
			{
				OFFSET -2.45375 -6.74162 0.00000
				CHANNELS 3 Zrotation Yrotation Xrotation
				JOINT RightFoot
				{
					OFFSET -2.45828 -6.75406 0.00000
					CHANNELS 3 Zrotation Yrotation Xrotation
					JOINT RightToeBase
					{
						OFFSET -0.13801 -0.37917 1.88456
						CHANNELS 3 Zrotation Yrotation Xrotation
						End Site
						{
							OFFSET -0.00000 -0.00000 0.97281
						}
					}
				}
			}
		}
	}
	JOINT LowerBack
	{
		OFFSET 0 0 0
		CHANNELS 3 Zrotation Yrotation Xrotation
		JOINT Spine
		{
			OFFSET 0.01003 2.00576 -0.14267
			CHANNELS 3 Zrotation Yrotation Xrotation
			JOINT Spine1
			{
				OFFSET 0.00908 2.01191 0.01660
				CHANNELS 3 Zrotation Yrotation Xrotation
				JOINT Neck
				{
					OFFSET 0 0 0
					CHANNELS 3 Zrotation Yrotation Xrotation
					JOINT Neck1
					{
						OFFSET -0.05849 1.60301 0.18934
						CHANNELS 3 Zrotation Yrotation Xrotation
						JOINT Head
						{
							OFFSET 0.01775 1.59435 -0.07960
							CHANNELS 3 Zrotation Yrotation Xrotation
							End Site
							{
								OFFSET 0.01210 1.70732 -0.05248
							}
						}
					}
				}
				JOINT LeftShoulder
				{
					OFFSET 0 0 0
					CHANNELS 3 Zrotation Yrotation Xrotation
					JOINT LeftArm
					{
						OFFSET 3.15315 1.26460 0.30667
						CHANNELS 3 Zrotation Yrotation Xrotation
						JOINT LeftForeArm
						{
							OFFSET 4.97694 -0.00000 -0.00000
							CHANNELS 3 Zrotation Yrotation Xrotation
							JOINT LeftHand
							{
								OFFSET 3.14391 -0.00000 -0.00000
								CHANNELS 3 Zrotation Yrotation Xrotation
								JOINT LeftFingerBase
								{
									OFFSET 0 0 0
									CHANNELS 3 Zrotation Yrotation Xrotation
									JOINT LeftHandIndex1
									{
										OFFSET 0.59358 -0.00000 -0.00000
										CHANNELS 3 Zrotation Yrotation Xrotation
										End Site
										{
											OFFSET 0.47856 -0.00000 -0.00000
										}
									}
								}
								JOINT LThumb
								{
									OFFSET 0 0 0
									CHANNELS 3 Zrotation Yrotation Xrotation
									End Site
									{
										OFFSET 0.48587 -0.00000 0.48587
									}
								}
							}
						}
					}
				}
				JOINT RightShoulder
				{
					OFFSET 0 0 0
					CHANNELS 3 Zrotation Yrotation Xrotation
					JOINT RightArm
					{
						OFFSET -3.25568 1.35581 0.18982
						CHANNELS 3 Zrotation Yrotation Xrotation
						JOINT RightForeArm
						{
							OFFSET -4.90473 -0.00000 0.00000
							CHANNELS 3 Zrotation Yrotation Xrotation
							JOINT RightHand
							{
								OFFSET -3.21621 0.00006 -0.00004
								CHANNELS 3 Zrotation Yrotation Xrotation
								JOINT RightFingerBase
								{
									OFFSET 0 0 0
									CHANNELS 3 Zrotation Yrotation Xrotation
									JOINT RightHandIndex1
									{
										OFFSET -0.62353 -0.00000 -0.00000
										CHANNELS 3 Zrotation Yrotation Xrotation
										End Site
										{
											OFFSET -0.50270 -0.00000 -0.00000
										}
									}
								}
								JOINT RThumb
								{
									OFFSET 0 0 0
									CHANNELS 3 Zrotation Yrotation Xrotation
									End Site
									{
										OFFSET -0.51038 -0.00000 0.51038
									}
								}
							}
						}
					}
				}
			}
		}
	}
}
MOTION
Frames: 14
Frame Time: 0.142857
0.00 0.00 0.00 0 0 0 0 0 0 -21 0 0 0 0 0 0 0 0 0 0 0 0 0 0 21 0 0 0 0 0 0 0 0 0 0 0 0 0 0 0 0 0 0 0 0 0 0 -16 0 0 21 0 0 11 0 0 0 -8 0 0 0 0 0 0 0 0 0 0 0 0 0 0 0 0 0 0 0 0 8 0 0 0 0 0 0 0 0 0 0 0 0 0 0 0 0 0
0.00 0.00 0.00 -5.1691 -7.3132 8.6542 0.0000 0.0000 0.0000 -5.0302 -11.6911 -34.9294 0.4416 4.2638 11.8200 0.7720 6.5661 -20.2505 0.5391 -4.7044 -13.0673 0.0000 0.0000 0.0000 25.3889 -3.9208 -0.3097 -1.2367 -7.0521 19.8699 2.3279 27.7759 -0.4782 -0.1553 -2.5392 6.9984 4.3482 4.1389 -0.5548 1.8831 5.6348 -3.5154 -0.5912 2.7192 -3.0884 -4.8136 -0.4869 -10.1324 1.5258 -0.1091 11.5486 1.2522 -0.1598 5.1431 0.0000 0.0000 0.0000 -94.2953 25.0551 -4.6371 5.1735 -8.8768 -0.4018 -0.0000 -0.0000 15.1071 15.3715 -4.8624 -1.3349 -7.1250 0.0000 -0.0000 -8.4494 24.9351 4.1426 0.0000 0.0000 0.0000 84.2974 17.7369 33.0894 -28.6288 39.6887 -10.5228 0.0000 -0.0000 -19.1955 -11.0310 -32.4931 5.9783 7.1250 -0.0000 -0.0000 24.9126 -61.2146 -10.1942
0.00 0.00 0.00 -4.6198 -8.5288 8.5876 0.0000 0.0000 0.0000 -7.3814 -10.0573 -39.6404 1.6061 7.9923 22.6908 0.0386 4.4717 -7.6508 0.8999 -6.0458 -16.9173 0.0000 0.0000 0.0000 22.4690 0.7491 12.9656 -1.4288 -7.5583 21.3802 0.1908 10.4350 11.3013 -0.9021 -6.0529 16.9380 1.7908 4.7679 -1.4342 0.8016 6.3927 -3.6501 -0.2352 3.1587 -2.8500 -5.2358 -0.6483 -9.5494 4.8376 -0.6414 8.2641 2.2965 -0.2163 4.0592 -0.0000 0.0000 0.0000 -93.3293 30.4643 -20.2777 4.2049 -7.2379 -0.2661 -0.0000 -0.0000 22.5849 11.8828 -8.3067 -1.7412 -7.1250 0.0000 -0.0000 -10.8172 21.5494 6.1969 -0.0000 0.0000 0.0000 81.9126 17.7715 32.3011 -36.6409 45.9489 -15.9814 0.0000 -0.0000 -19.8168 -23.7105 -32.3929 13.2399 7.1250 -0.0000 -0.0000 10.6514 -64.3982 -5.0305
0.00 0.00 0.00 -0.9756 -7.5403 7.7000 0.0000 0.0000 0.0000 -14.2379 -8.1876 -39.9081 3.1739 10.9714 32.1836 0.0321 0.0978 -3.4179 0.5027 -4.5452 -12.6158 0.0000 0.0000 0.0000 19.4160 4.0412 7.5375 -4.5940 -12.9115 39.0380 -1.2472 -3.7122 20.2102 -0.2224 -3.0359 8.3787 -2.4424 4.2514 -1.3027 -0.7966 5.6404 -3.8011 0.4396 2.8771 -3.3394 -4.4631 -1.3985 -11.3909 5.3418 -1.7881 9.5640 2.2536 -0.6980 4.8212 0.0000 0.0000 0.0000 -91.3586 27.5274 -18.6416 3.6288 -6.2561 -0.1984 -0.0000 -0.0000 21.4400 17.6923 -6.4253 -2.0444 -7.1250 0.0000 -0.0000 -6.6682 23.2487 3.5177 0.0000 0.0000 0.0000 83.9521 10.6303 31.0821 -38.6639 47.2581 -17.4515 0.0000 -0.0000 -19.4217 -26.6024 -32.4683 15.0483 7.1250 -0.0000 -0.0000 7.1452 -65.2832 -3.5112
0.00 0.00 0.00 1.0344 -8.5178 6.1841 0.0000 0.0000 0.0000 -18.9553 -6.1894 -34.0515 3.5103 11.4785 33.9112 0.1418 -2.8997 -6.7015 0.1338 -2.3573 -6.4941 0.0000 0.0000 0.0000 17.2380 7.1569 -0.8865 -9.3829 -17.0479 57.4050 -0.2914 -16.0089 14.0607 -0.2235 -3.0432 8.3989 -3.6646 3.8953 0.3009 -1.6449 5.0682 -3.2787 0.1602 2.6082 -3.7176 -4.2867 -0.7469 -11.8706 4.9138 -0.8510 8.9489 2.1582 -0.2550 4.6604 -0.0000 -0.0000 0.0000 -90.6400 21.3702 -18.9592 3.6908 -6.3620 -0.2052 -0.0000 -0.0000 23.5262 19.1120 -5.5447 -1.9176 -7.1250 0.0000 -0.0000 -5.6392 24.1171 2.8560 -0.0000 -0.0000 0.0000 87.2991 4.3072 30.5382 -36.8397 46.0820 -16.1245 0.0000 -0.0000 -19.8343 -35.9082 -40.4746 25.1745 7.1250 -0.0000 -0.0000 0.2011 -76.4728 -0.1485
0.00 0.00 0.00 1.8235 -8.3775 5.5206 0.0000 0.0000 0.0000 -23.3902 -5.2527 -20.8167 2.6916 10.1782 29.5558 0.6626 -4.5007 -14.5120 0.2290 -3.0803 -8.5023 0.0000 0.0000 0.0000 16.6366 11.7741 -20.2786 -13.7986 -19.0518 71.5884 -0.0259 -0.1413 -3.0959 -0.0023 0.3085 -0.8477 -4.2567 2.6852 0.7797 -0.7642 3.4435 -3.1738 1.4400 1.8328 -3.9175 -5.3627 0.4630 -10.3653 4.8452 0.8877 9.1529 2.4281 0.5400 4.3851 0.0000 0.0000 0.0000 -90.2934 5.1916 -14.4821 5.5858 -9.5696 -0.4679 -0.0000 -0.0000 23.4763 21.8968 -16.8170 -6.6329 -7.1250 0.0000 -0.0000 -3.9410 11.9696 3.0453 0.0000 0.0000 0.0000 91.1700 -7.0874 24.3623 -23.3500 34.4693 -7.3354 0.0000 -0.0000 -17.2313 -25.4294 -38.8011 16.5906 7.1250 -0.0000 -0.0000 14.9634 -71.1554 -9.3938
0.00 0.00 0.00 4.3334 -5.9771 4.8936 0.0000 0.0000 0.0000 -28.2607 0.5013 -9.4684 1.8434 8.5320 24.3420 0.6924 -9.2709 -15.2413 0.2569 -3.2613 -9.0070 0.0000 0.0000 0.0000 15.1468 13.4224 -34.2216 -9.4678 -17.0995 57.6942 -0.6214 6.0791 -14.0679 -0.8531 5.8904 -16.4668 -7.1955 1.2406 1.0789 -0.4372 1.4123 -3.2876 3.5084 0.9294 -4.1903 -4.0900 0.0336 -11.4134 2.7254 0.3590 12.8670 1.5583 0.1803 5.7511 -0.0000 0.0000 0.0000 -87.0135 -10.1654 17.8825 12.4465 -20.4709 -2.2560 -0.0000 0.0000 -12.8174 21.6941 -10.7460 -4.2423 -7.1250 0.0000 -0.0000 -3.7917 18.4504 2.4020 -0.0000 0.0000 0.0000 93.4472 -16.4221 -2.0115 -9.6913 16.2553 -1.3873 0.0000 0.0000 7.5042 -20.6964 -39.1006 13.4020 7.1250 -0.0000 -0.0000 21.5137 -69.8750 -13.0030
0.00 0.00 0.00 4.7225 -2.7786 4.9352 0.0000 0.0000 0.0000 -28.0847 3.7508 -1.4695 1.0362 6.4743 18.1671 0.1446 -13.4219 -11.1203 0.0557 -1.5229 -4.1888 0.0000 0.0000 0.0000 15.2866 12.9192 -37.3353 -5.0184 -13.4045 40.9023 -0.6364 7.7751 -14.4113 -0.4552 4.3284 -12.0025 -7.9539 0.2350 1.1625 -0.2768 0.0571 -3.0248 4.1696 0.2616 -3.8135 -3.9745 -0.1267 -10.6967 3.0584 0.0617 11.6399 1.6093 0.0669 5.2560 0.0000 -0.0000 0.0000 -83.8913 -19.8300 25.0180 16.3671 -26.0159 -3.8056 -0.0000 0.0000 -22.2010 24.5187 -10.9920 -4.9705 -7.1250 0.0000 -0.0000 -1.8122 17.9324 1.1668 0.0000 -0.0000 0.0000 95.8352 -24.5896 -16.1941 -9.8424 16.4927 -1.4299 0.0000 0.0000 19.6279 -20.8730 -39.8418 13.7286 7.1250 -0.0000 -0.0000 22.4069 -70.5923 -13.9141
0.00 0.00 0.00 5.7349 -0.9557 6.7585 0.0000 0.0000 0.0000 -28.2073 6.9784 8.3508 0.0869 1.9010 5.2321 -0.2611 -12.7144 -4.9240 0.0441 1.3547 3.7253 0.0000 0.0000 0.0000 13.9565 13.2485 -41.2716 -2.0040 -8.8745 25.4035 -0.4641 9.2379 -12.8620 -0.0982 2.0209 -5.5633 -9.1986 -0.1986 -0.4421 -0.3841 -0.4076 -3.3889 4.7664 0.0521 -3.2314 -3.5954 -0.7470 -9.7049 2.6603 -0.7966 9.9777 1.3528 -0.3647 4.6043 0.0000 0.0000 0.0000 -81.3123 -28.9792 29.0735 19.4322 -29.9522 -5.2449 -0.0000 0.0000 -27.0510 24.8243 -13.5392 -6.1807 -7.1250 0.0000 -0.0000 -1.7508 15.1253 1.2339 0.0000 0.0000 0.0000 97.3735 -29.7515 -30.8962 -8.3260 14.0800 -1.0300 0.0000 0.0000 24.9164 -19.8645 -37.8850 12.5092 7.1250 -0.0000 -0.0000 20.8608 -68.5162 -11.9660
0.00 0.00 0.00 4.4765 2.6949 6.6038 0.0000 0.0000 0.0000 -24.3947 6.1122 18.3336 0.4817 4.4507 12.3483 0.2800 -0.3030 10.1087 0.0129 -0.7331 -2.0146 0.0000 0.0000 0.0000 15.1684 13.4652 -42.7903 -3.4010 -11.3176 33.3586 -0.0583 2.1694 -4.3224 -0.2245 -3.0501 8.4182 -4.5615 -1.0688 0.5051 0.9959 -1.5128 -3.4408 3.6419 -0.5966 -3.6933 -3.6964 -0.5777 -10.6495 -1.4201 -0.0531 8.9720 0.1566 -0.2401 4.4333 0.0000 -0.0000 0.0000 -79.1899 -30.5822 28.5976 29.5911 -40.5403 -11.1429 -0.0000 0.0000 -31.1642 28.7952 -16.2886 -8.7639 -7.1250 0.0000 -0.0000 0.6786 11.5405 -0.5292 0.0000 -0.0000 0.0000 97.3191 -33.5267 -56.0559 -6.9048 11.7624 -0.7121 0.0000 0.0000 44.1827 -16.7585 -36.3632 10.1229 7.1250 -0.0000 -0.0000 22.6356 -66.2111 -11.8434
0.00 0.00 0.00 2.8314 1.2793 6.1226 0.0000 0.0000 0.0000 -23.2333 4.0459 10.1042 2.9569 10.6249 31.0249 0.7473 8.4325 15.6284 0.2861 3.4401 9.5065 0.0000 0.0000 0.0000 18.1007 12.8419 -41.5022 -4.3675 -12.6340 38.0133 0.0116 5.4874 -3.4780 -0.0335 -1.1813 3.2477 -2.1059 -0.2869 1.1135 1.9049 -0.3838 -3.2819 3.1668 -0.0909 -3.9809 -4.6658 -0.4215 -11.2090 -2.0632 0.4305 9.5466 0.1466 -0.0925 4.7023 0.0000 -0.0000 0.0000 -81.3608 -25.2343 29.5512 33.0391 -43.3601 -13.4489 -0.0000 0.0000 -33.2758 28.7520 -15.9069 -8.5518 -7.1250 0.0000 -0.0000 0.6911 11.9732 -0.5327 0.0000 -0.0000 0.0000 96.2185 -30.8382 -56.8407 -7.0595 12.0172 -0.7440 0.0000 0.0000 46.7723 -16.9471 -35.7794 10.1018 7.1250 -0.0000 -0.0000 21.7560 -65.7373 -11.1279
0.00 0.00 0.00 0.7372 0.5259 5.5102 0.0000 0.0000 0.0000 -20.7757 1.5406 1.1036 6.8578 15.2110 48.3345 0.0869 19.4749 14.4320 0.0451 1.3704 3.7685 0.0000 0.0000 0.0000 22.1043 11.2169 -36.4942 -4.4982 -12.7954 38.6072 0.0270 8.5203 -5.4251 -0.0500 -1.4434 3.9696 0.0721 0.3151 1.7339 2.4009 0.5065 -2.7742 2.4100 0.2889 -3.8503 -4.6963 -0.6292 -11.5766 -1.3130 0.0752 8.9918 0.3575 -0.2097 4.5927 -0.0000 0.0000 0.0000 -82.8632 -18.6156 31.5930 34.8408 -44.6981 -14.7013 -0.0000 0.0000 -34.1700 28.8542 -14.6485 -7.9324 -7.1250 0.0000 -0.0000 0.8900 13.3642 -0.6603 -0.0000 0.0000 0.0000 95.4819 -25.8220 -46.3323 -6.9937 11.9088 -0.7303 0.0000 0.0000 40.0356 -17.3397 -36.3074 10.4743 7.1250 -0.0000 -0.0000 21.9038 -66.3289 -11.5032
0.00 0.00 0.00 -0.9613 -2.5794 5.7008 0.0000 0.0000 0.0000 -17.6347 -0.8510 -21.3833 12.4769 18.5850 67.4926 -0.0135 2.4151 0.4665 0.1976 -2.8626 -7.8965 0.0000 0.0000 0.0000 26.1604 8.3220 -23.4345 -3.5432 -11.5264 34.0765 -0.0135 13.9477 -9.9508 -0.0141 -0.7678 2.1100 2.1017 2.2658 0.3226 2.3480 3.1274 -2.7443 1.1454 1.5409 -3.0209 -4.8037 -0.9753 -10.7336 -0.8613 -0.4322 10.8785 0.4795 -0.4684 5.0475 0.0000 0.0000 0.0000 -87.6200 -3.1481 35.3599 21.8739 -32.8343 -6.5174 -0.0000 0.0000 -29.7659 26.3917 -14.2859 -6.9810 -7.1250 0.0000 -0.0000 -0.7389 14.1124 0.5365 0.0000 0.0000 0.0000 92.3426 -9.0926 -8.9254 -8.6348 14.5765 -1.1064 0.0000 0.0000 17.1694 -25.5778 -37.6568 16.2998 7.1250 -0.0000 -0.0000 13.2997 -70.1160 -8.0313
0.00 0.00 0.00 -3.4053 -6.1318 6.4802 0.0000 0.0000 0.0000 -13.7625 -5.0356 -36.2492 8.2113 16.2725 53.3203 0.6396 -0.3401 -14.9997 0.0825 -1.8532 -5.1002 0.0000 0.0000 0.0000 29.2407 0.6371 -12.8424 -2.4908 -9.8211 28.3994 0.5524 21.0253 -9.9864 -0.2509 -3.2231 8.9005 4.9534 3.3391 0.1037 2.2979 4.6087 -3.0762 -0.5143 2.2007 -3.0331 -3.3411 -0.3110 -10.9257 -1.6147 0.3699 12.2761 0.0677 -0.0916 5.5022 0.0000 -0.0000 0.0000 -92.0130 10.6881 16.0757 7.1462 -12.1596 -0.7621 -0.0000 0.0000 -2.0468 19.3858 -10.5274 -3.6785 -7.1250 0.0000 -0.0000 -5.4185 18.8628 3.3908 0.0000 -0.0000 0.0000 88.9729 8.3784 19.3585 -17.4643 27.4658 -4.2993 0.0000 -0.0000 -9.1051 -22.0985 -38.4550 14.1714 7.1250 -0.0000 -0.0000 18.8574 -69.7419 -11.3001
